<?xml version="1.0" encoding="utf-8"?>
<!-- Generator: Adobe Illustrator 15.0.2, SVG Export Plug-In . SVG Version: 6.00 Build 0)  -->
<!DOCTYPE svg PUBLIC "-//W3C//DTD SVG 1.1//EN" "http://www.w3.org/Graphics/SVG/1.1/DTD/svg11.dtd">
<svg version="1.1" id="Calque_1" xmlns="http://www.w3.org/2000/svg" xmlns:xlink="http://www.w3.org/1999/xlink" x="0px" y="0px"
	 width="650px" height="600px" viewBox="0 0 650 600" enable-background="new 0 0 650 600" xml:space="preserve">
<g id="Calque_1_1_">
	
		<rect x="23.473" y="201.592" transform="matrix(-0.8738 -0.4863 0.4863 -0.8738 467.4091 674.8335)" fill="#FFFFFF" stroke="#E30613" stroke-width="8" stroke-linecap="round" stroke-linejoin="round" stroke-miterlimit="10" width="595.608" height="150.339"/>
	
		<rect x="23.474" y="201.592" transform="matrix(-0.8738 -0.4863 0.4863 -0.8738 467.4095 674.834)" fill="#36A9E1" width="595.607" height="150.339"/>
</g>
<g id="Calque_1_-_copie">
	<circle fill="#E30613" cx="220.159" cy="220.484" r="167.288"/>
	<circle fill="none" stroke="#BE1622" stroke-width="93.5814" stroke-miterlimit="10" cx="208.371" cy="213.922" r="156.55"/>
	
		<rect x="53.253" y="209.109" transform="matrix(-0.8738 -0.4863 0.4863 -0.8738 467.4084 674.8347)" display="none" fill="#FFFFFF" stroke="#000000" stroke-width="7.2" stroke-linecap="round" stroke-linejoin="round" stroke-miterlimit="10" width="536.047" height="135.306"/>
	<g>
		<path fill="#36A9E1" d="M143.128,60.603L46.383,234.427l-4.003-2.229l96.745-173.823L143.128,60.603z M151.134,65.059
			L54.39,238.883l-4.003-2.229l96.745-173.824L151.134,65.059z M159.14,69.514L62.395,243.338l-4.002-2.228l96.744-173.824
			L159.14,69.514z M167.146,73.97L70.401,247.794l-4.003-2.229l96.745-173.823L167.146,73.97z M78.407,252.25l-4.003-2.229
			l96.745-173.823l4.002,2.228l-47.135,84.689l17.551,126.514l-4.893-2.724l-16.348-117.16L78.407,252.25z M136.72,160.04
			l18.856,135.159l-4.893-2.724l-18.042-130.337L136.72,160.04z M145.792,155.771l19.789,144.998l-4.893-2.724l-19.544-140.202
			L145.792,155.771z M154.276,152.043l21.314,154.296l-4.893-2.724l-20.945-149.722L154.276,152.043z M158.328,150l79.313-36.794
			l5.115,2.847l-79.062,36.867l0.591,4.694l83.365-38.838l4.893,2.723l-87.548,40.593l0.813,4.818l91.626-42.689l4.893,2.723
			l-95.928,44.666l0.467,4.916l100.799-46.61l4.671,2.6l-104.794,48.557l0.589,4.696l109.095-50.531l4.894,2.723l-113.158,52.6
			l16.637,121.349l-4.67-2.6L158.328,150z"/>
		<path fill="#36A9E1" d="M388.884,200.771c-3.313-2.427-6.747-4.63-10.305-6.61c-23.277-12.956-47.879-15.772-73.8-8.451
			c-25.922,7.323-45.4,22.698-58.436,46.12c-12.956,23.278-15.753,47.837-8.387,73.685c7.364,25.851,22.759,45.29,46.184,58.327
			c3.558,1.98,7.24,3.738,11.049,5.275l-2.198,3.949c-3.804-1.545-7.484-3.305-11.039-5.283
			c-24.614-13.699-40.75-33.985-48.413-60.861c-7.664-26.877-4.65-52.614,9.042-77.215c13.689-24.596,33.997-40.759,60.917-48.482
			c26.922-7.724,52.688-4.74,77.3,8.959c3.555,1.979,6.99,4.181,10.305,6.606L388.884,200.771L388.884,200.771z M384.429,208.777
			c-3.313-2.427-6.748-4.63-10.303-6.609c-21.202-11.801-43.516-14.362-66.937-7.69c-23.426,6.673-41.037,20.61-52.835,41.81
			c-11.801,21.203-14.365,43.515-7.69,66.938c6.671,23.424,20.608,41.035,41.811,52.835c2.369,1.319,6.092,3.004,11.17,5.051
			l-2.229,4.003c-5.078-2.047-8.8-3.731-11.17-5.051c-22.387-12.46-37.084-30.978-44.085-55.556
			c-7.001-24.577-4.27-48.059,8.19-70.447c12.46-22.387,30.976-37.081,55.553-44.083c24.577-7.001,48.062-4.272,70.45,8.188
			c3.555,1.979,6.988,4.182,10.302,6.608L384.429,208.777L384.429,208.777z M379.849,217.005c-2.489-2.161-5.881-4.438-10.179-6.831
			c-18.978-10.562-38.966-12.852-59.967-6.869c-21,5.982-36.781,18.462-47.343,37.438c-10.562,18.978-12.852,38.967-6.87,59.968
			c5.983,21,18.463,36.781,37.439,47.344c4.001,2.226,7.723,3.912,11.17,5.05l-2.229,4.004c-3.446-1.14-7.168-2.825-11.168-5.051
			c-20.166-11.224-33.405-27.912-39.716-50.064c-6.31-22.152-3.854-43.313,7.37-63.478c11.221-20.162,27.909-33.401,50.062-39.711
			c22.152-6.312,43.314-3.857,63.479,7.366c3.556,1.979,6.99,4.182,10.303,6.609L379.849,217.005L379.849,217.005z M375.394,225.012
			c-2.787-2.327-6.179-4.605-10.18-6.831c-16.754-9.325-34.419-11.341-52.995-6.049c-18.581,5.293-32.529,16.317-41.853,33.068
			c-9.325,16.755-11.343,34.419-6.049,52.997c5.29,18.577,16.314,32.526,33.069,41.852c4.15,2.31,7.913,3.92,11.293,4.828
			l-2.229,4.004c-3.379-0.909-7.143-2.519-11.293-4.828c-17.942-9.986-29.721-24.844-35.342-44.576
			c-5.621-19.731-3.438-38.564,6.547-56.504c9.982-17.937,24.84-29.721,44.57-35.341c19.732-5.621,38.566-3.44,56.509,6.546
			c4,2.227,7.393,4.504,10.178,6.831L375.394,225.012L375.394,225.012z M370.937,233.018c-4.118-3.069-7.51-5.348-10.178-6.832
			c-14.532-8.088-29.876-9.828-46.026-5.227c-16.155,4.603-28.273,14.168-36.36,28.697c-8.088,14.531-9.832,29.874-5.229,46.026
			c4.601,16.152,14.167,28.272,28.698,36.36c3.555,1.979,7.361,3.514,11.418,4.605l-2.352,4.226
			c-3.381-0.907-7.145-2.519-11.294-4.828c-15.718-8.748-26.04-21.772-30.969-39.082c-4.933-17.309-3.024-33.818,5.724-49.536
			c8.828-15.86,21.873-26.221,39.143-31.078c17.268-4.859,33.757-2.914,49.475,5.833c4,2.227,7.393,4.504,10.179,6.831
			L370.937,233.018L370.937,233.018z"/>
	</g>
	<g>
		<path fill="#E30613" d="M408.55,284.617c9.484,7.069,15.604,15.209,18.353,24.422c2.607,9.137,1.293,18.414-3.948,27.83
			c-4.861,8.735-12.379,14.381-22.553,16.94c2.616,3.957,4.598,8.098,5.941,12.419c0.66,2.338,1.169,4.63,1.521,6.882
			c0.353,2.253,0.582,4.57,0.686,6.95c0.068,4.685-0.422,9.417-1.475,14.193c-1.34,4.976-3.072,9.372-5.199,13.192
			c-2.506,4.504-5.84,8.724-9.999,12.663c-4.011,3.669-8.586,6.752-13.732,9.25c-4.857,2.299-10.206,3.879-16.049,4.738
			c-5.708,0.936-11.263,0.794-16.666-0.427c-5.828-1.098-15.637-5.486-29.426-13.16l79.634-143.079L408.55,284.617L408.55,284.617z
			 M380.122,337.71c2.594,1.443,5.49,2.342,8.695,2.692c3.064,0.277,5.978,0.024,8.744-0.763c2.973-0.847,5.583-2.163,7.83-3.951
			c2.095-1.514,3.978-3.772,5.649-6.775c1.594-2.864,2.56-5.725,2.895-8.575c0.273-3.063,0.017-5.976-0.769-8.737
			c-0.85-2.975-2.171-5.584-3.96-7.834c-1.792-2.244-4.118-4.166-6.986-5.763l-0.819-0.456l-22.098,39.705L380.122,337.71
			L380.122,337.71z M337.562,415.621c4.495,2.502,9.211,3.966,14.152,4.389c5.208,0.578,10.043,0.231,14.502-1.043
			c4.879-1.395,9.304-3.576,13.277-6.548c3.975-2.97,7.327-6.912,10.062-11.824c2.582-4.64,4.089-9.43,4.521-14.375
			c0.446-5.29,0.036-10.163-1.23-14.623c-0.666-2.336-1.594-4.595-2.786-6.777c-1.194-2.185-2.481-4.282-3.853-6.3
			c-2.967-3.972-6.764-7.249-11.395-9.826l-1.432-0.797l-37.25,66.928L337.562,415.621L337.562,415.621z"/>
		<path fill="#E30613" d="M466.587,351.462c4.911,3.091,9.152,7.063,12.73,11.91c1.72,2.386,3.121,4.862,4.2,7.429
			c1.08,2.566,2.016,5.232,2.812,7.996c1.239,5.514,1.597,11.162,1.073,16.944c-0.816,5.979-2.553,11.357-5.209,16.13
			c-1.976,3.549-4.609,6.994-7.902,10.342c-3.431,3.273-7.002,5.841-10.722,7.701c-1.925,0.895-3.901,1.717-5.927,2.464
			s-4.128,1.319-6.311,1.711c-4.236,0.861-8.541,1.054-12.924,0.579c-0.034,0.699,0.025,1.4,0.169,2.105
			c0.145,0.706,0.23,1.514,0.262,2.423c0.027,0.908,0.069,1.872,0.131,2.889c0.061,1.016,0.097,2.154,0.114,3.412l-0.441,12.349
			c-0.279,7.887,2.315,14.601,7.784,20.146l-6.946,12.48c-1.951-1.981-3.597-3.789-4.929-5.422
			c-1.334-1.635-2.496-3.177-3.488-4.621c-2.138-2.617-3.647-5.067-4.531-7.347c-1.039-2.007-1.572-4.269-1.605-6.788
			c-0.019-1.262-0.019-2.558,0.004-3.887c0.021-1.326,0.137-2.826,0.349-4.495l0.678-6.055c0.027-0.699,0.061-1.485,0.097-2.356
			c0.036-0.872,0.048-1.939,0.031-3.198c-0.111-2.384-0.41-5.232-0.9-8.543l-1.194-4.149l-0.643-2.231
			c-0.171-0.273-0.278-0.511-0.325-0.718c-0.047-0.204-0.156-0.442-0.324-0.716l0.348,0.193l-21.137,37.976l-12.508-6.962
			l64.867-116.548L466.587,351.462L466.587,351.462z M429.427,418.229c3.431,1.555,7.029,2.484,10.799,2.791
			c3.767,0.313,7.563-0.076,11.392-1.164c3.826-1.086,7.298-2.818,10.412-5.196c2.962-2.104,5.62-5.272,7.974-9.502
			c1.974-3.545,3.255-7.299,3.85-11.26c0.317-4.111,0.031-7.937-0.863-11.474c-0.958-3.749-2.487-7.278-4.581-10.59
			c-1.126-1.519-2.41-2.993-3.851-4.422c-1.445-1.428-3.017-2.704-4.716-3.831L429.427,418.229L429.427,418.229z"/>
		<path fill="#E30613" d="M530.721,387.57l-64.778,116.39l-12.317-6.855l64.778-116.39L530.721,387.57L530.721,387.57z"/>
		<path fill="#E30613" d="M487.511,515.964l79.633-143.079l12.95,7.207l-29.735,53.426l74.559-28.478l16.781,9.34l-94.285,35.995
			l21.407,110.844l-16.782-9.341l-17.399-90.114l-34.178,61.408L487.511,515.964L487.511,515.964z"/>
	</g>
</g>
</svg>
