<?xml version="1.0" encoding="utf-8"?>
<!-- Generator: Adobe Illustrator 16.0.3, SVG Export Plug-In . SVG Version: 6.00 Build 0)  -->
<!DOCTYPE svg PUBLIC "-//W3C//DTD SVG 1.1//EN" "http://www.w3.org/Graphics/SVG/1.1/DTD/svg11.dtd">
<svg version="1.1" xmlns="http://www.w3.org/2000/svg" xmlns:xlink="http://www.w3.org/1999/xlink" x="0px" y="0px"
	 width="761.333px" height="235.333px" viewBox="0 0 761.333 235.333" enable-background="new 0 0 761.333 235.333"
	 xml:space="preserve">
<g id="ombre" opacity="0.7">
	<g>
		<path d="M133.392,168.78c-5.034,1.925-10.445,0.095-15.922-3.84c0,0-10.559-0.77-15.897-0.135
			c-18.312,5.677-31.08-2.905-59.968,9.406l-14.506-61.553c12.495-12.902,24.812-22.839,36.888-29.99
			c11.384-6.742,22.555-11.008,33.459-12.951l0.521-0.186c181.192-60.57,159.521,122.372,153.393,130.676
			c-4.02,5.447-58.001,41.642-91.47,28.806c-18.645-10.555-28.794-26.422-25.598-41.88c1.447-3.914,3.574-7.25,6.346-10.297
			l0.02-0.022C141.575,172.286,134.499,168.356,133.392,168.78z"/>
		<path d="M133.633,169.749l-0.948,0.312c-0.388,0.093-0.785,0.207-1.168,0.271c-0.383,0.051-0.763,0.138-1.148,0.155
			c-0.385,0.022-0.77,0.067-1.154,0.051c-0.769,0.002-1.537-0.055-2.286-0.187c-0.753-0.112-1.491-0.296-2.209-0.517
			c-0.721-0.215-1.424-0.478-2.106-0.774c-0.685-0.291-1.354-0.614-2-0.97c-1.3-0.7-2.536-1.494-3.723-2.342l0.509,0.185
			c-2.621-0.173-5.267-0.306-7.896-0.354c-0.659-0.024-1.314-0.015-1.971-0.021c-0.657-0.003-1.314-0.011-1.965,0.017l-0.979,0.027
			c-0.324,0.014-0.657,0.006-0.975,0.038l-1.922,0.153l0.177-0.038c-1.248,0.374-2.505,0.718-3.778,0.995
			c-1.273,0.272-2.554,0.514-3.842,0.681c-2.575,0.356-5.166,0.517-7.737,0.565c-5.147,0.1-10.225-0.117-15.266,0.147
			c-5.04,0.236-10.037,0.939-14.93,2.137c-1.221,0.307-2.438,0.627-3.646,0.988c-1.209,0.353-2.41,0.739-3.603,1.146
			c-1.194,0.408-2.381,0.835-3.557,1.295c-1.186,0.434-2.342,0.947-3.514,1.417l-1.095,0.438l-0.266-1.126l-14.505-61.553
			l-0.127-0.539l0.381-0.383l0.001-0.001l3.678-3.755c1.209-1.269,2.505-2.452,3.756-3.679l1.894-1.826l1.947-1.77
			c1.304-1.173,2.578-2.38,3.931-3.501c1.344-1.129,2.654-2.3,4.027-3.396l4.128-3.279l4.238-3.142l4.351-2.994
			c1.47-0.97,2.975-1.888,4.461-2.835c1.545-0.943,3.032-1.764,4.551-2.652c1.557-0.834,3.136-1.665,4.713-2.474
			c1.604-0.742,3.182-1.544,4.812-2.236c1.638-0.67,3.245-1.417,4.922-1.997l2.496-0.917c0.837-0.292,1.69-0.538,2.535-0.809
			c1.684-0.563,3.408-0.995,5.127-1.44c1.715-0.465,3.474-0.756,5.209-1.142L96.9,68.19c7.227-2.477,14.504-4.677,21.881-6.566
			c7.378-1.882,14.851-3.444,22.409-4.543c7.554-1.117,15.203-1.736,22.876-1.74c7.67,0.01,15.374,0.712,22.931,2.299
			c7.553,1.576,14.95,4.106,21.846,7.675c6.893,3.569,13.25,8.202,18.753,13.683c5.507,5.481,10.164,11.769,13.973,18.492
			c3.815,6.727,6.788,13.885,9.101,21.216c2.322,7.333,3.926,14.862,5.03,22.44c1.096,7.582,1.667,15.225,1.785,22.87
			c0.106,7.646-0.217,15.296-1.127,22.919c-0.485,3.823-1.024,7.593-2.119,11.476c-0.149,0.493-0.302,0.983-0.514,1.512
			c-0.105,0.265-0.215,0.529-0.381,0.842c-0.07,0.142-0.173,0.317-0.301,0.504c-0.05,0.071-0.015,0.033-0.136,0.191l-0.056,0.069
			l-0.112,0.138c-0.159,0.189-0.464,0.525-0.628,0.678c-0.194,0.196-0.386,0.376-0.576,0.549c-0.382,0.35-0.763,0.674-1.145,0.992
			c-1.527,1.26-3.081,2.398-4.658,3.506c-6.313,4.393-12.909,8.254-19.722,11.723c-6.817,3.452-13.851,6.5-21.115,8.959
			c-7.261,2.442-14.771,4.315-22.485,5.044c-7.679,0.708-15.688,0.22-23.085-2.634l-0.116-0.045l-0.096-0.055
			c-3.867-2.227-7.559-4.781-10.949-7.713c-3.383-2.934-6.477-6.239-9.04-9.955c-0.646-0.924-1.25-1.879-1.813-2.859
			c-0.572-0.975-1.095-1.98-1.575-3.006c-0.487-1.022-0.915-2.074-1.304-3.141c-0.387-1.067-0.709-2.158-0.996-3.259
			c-0.261-1.107-0.49-2.224-0.639-3.354c-0.147-1.129-0.254-2.267-0.266-3.406c-0.037-1.14,0.021-2.28,0.124-3.415
			c0.106-1.135,0.298-2.258,0.525-3.372l0.02-0.099l0.027-0.065l0.601-1.462l0.674-1.431l0.745-1.395l0.814-1.354l0.88-1.309
			l0.94-1.263l0.995-1.215l1.036-1.162l-0.232,0.465v-0.001c0.145-0.734,0.014-1.508-0.341-2.256
			c-0.358-0.747-0.914-1.45-1.557-2.079c-0.648-0.626-1.383-1.192-2.165-1.662c-0.39-0.234-0.792-0.448-1.189-0.618
			c-0.195-0.078-0.397-0.159-0.569-0.203c-0.081-0.021-0.175-0.045-0.215-0.046C133.641,169.75,133.637,169.75,133.633,169.749z
			 M132.115,168.151l0.921-0.301c0.4-0.132,0.659-0.097,0.836-0.078c0.206,0.021,0.353,0.063,0.51,0.103
			c0.307,0.081,0.563,0.186,0.826,0.292c0.511,0.219,0.982,0.471,1.439,0.745c0.911,0.55,1.753,1.196,2.526,1.941
			c0.765,0.751,1.466,1.612,1.965,2.65c0.246,0.52,0.435,1.085,0.528,1.683c0.094,0.596,0.085,1.222-0.033,1.824l0,0.002
			l-0.035,0.232l-0.198,0.232l-0.969,1.137l-0.911,1.166l-0.855,1.203l-0.794,1.24l-0.729,1.277l-0.663,1.312l-0.596,1.343
			l-0.528,1.371l0.047-0.163c-0.186,1.034-0.339,2.072-0.414,3.118c-0.075,1.044-0.112,2.093-0.06,3.14
			c0.028,1.046,0.145,2.09,0.297,3.126c0.154,1.037,0.383,2.062,0.64,3.079c0.283,1.011,0.597,2.014,0.973,2.997
			c0.377,0.982,0.791,1.951,1.26,2.896c0.463,0.947,0.965,1.877,1.517,2.779c0.54,0.907,1.122,1.794,1.744,2.651
			c0.611,0.865,1.26,1.706,1.942,2.52c0.671,0.821,1.381,1.615,2.115,2.385c1.462,1.545,3.024,3,4.66,4.371
			c3.271,2.746,6.862,5.107,10.589,7.219l-0.212-0.1c6.8,2.545,14.305,2.961,21.628,2.207c7.351-0.77,14.602-2.648,21.64-5.098
			c7.042-2.464,13.892-5.515,20.532-8.963c6.628-3.46,13.12-7.251,19.204-11.53c1.514-1.07,3.008-2.176,4.393-3.328
			c0.344-0.287,0.682-0.578,0.996-0.868c0.159-0.145,0.312-0.289,0.45-0.43c0.177-0.176,0.189-0.191,0.338-0.358
			c0.233-0.209,0.538-1.081,0.778-1.896c0.952-3.403,1.499-7.147,1.945-10.822c0.859-7.4,1.152-14.898,1.021-22.373
			c-0.286-14.945-2.316-29.906-6.735-44.117c-2.215-7.095-5.059-13.991-8.689-20.437c-3.625-6.443-8.039-12.432-13.241-17.642
			c-5.2-5.21-11.194-9.605-17.723-13.012c-6.531-3.404-13.569-5.842-20.813-7.376c-7.245-1.552-14.683-2.232-22.132-2.299
			c-7.453-0.063-14.928,0.471-22.344,1.499c-7.42,1.01-14.788,2.479-22.082,4.27c-7.292,1.795-14.525,3.913-21.628,6.274
			l-0.114,0.038l-0.147,0.031c-1.673,0.358-3.366,0.619-5.023,1.054c-1.662,0.415-3.328,0.814-4.96,1.345
			c-0.819,0.254-1.645,0.484-2.458,0.759l-2.428,0.856c-1.633,0.533-3.206,1.236-4.807,1.86c-1.594,0.645-3.142,1.403-4.716,2.099
			l-4.593,2.316c-1.508,0.849-3.09,1.692-4.536,2.546c-1.471,0.904-2.96,1.78-4.417,2.708l-4.32,2.871l-4.221,3.024l-4.12,3.167
			c-1.372,1.059-2.684,2.194-4.029,3.288c-1.354,1.085-2.633,2.258-3.941,3.398l-1.955,1.719l-1.904,1.777
			c-1.259,1.196-2.561,2.346-3.78,3.585l-3.707,3.664l-0.001,0.001l0.254-0.921l14.505,61.553l-1.36-0.688
			c1.194-0.479,2.37-1.001,3.579-1.444c1.198-0.469,2.41-0.904,3.629-1.321c1.219-0.415,2.447-0.81,3.684-1.171
			c1.236-0.369,2.483-0.698,3.735-1.012c5.014-1.229,10.159-1.951,15.305-2.192c5.148-0.268,10.273-0.05,15.321-0.148
			c2.525-0.049,5.033-0.205,7.509-0.547c1.24-0.161,2.466-0.393,3.686-0.653c1.219-0.266,2.421-0.595,3.616-0.952l0.107-0.032
			l0.07-0.006l2.044-0.163c0.342-0.034,0.675-0.025,1.013-0.041l1.01-0.027c0.675-0.027,1.343-0.021,2.013-0.018
			c0.669,0.006,1.34-0.003,2.007,0.021c2.675,0.05,5.329,0.183,8.001,0.359l0.276,0.019l0.233,0.166
			c1.131,0.807,2.297,1.555,3.505,2.205c0.601,0.331,1.217,0.628,1.842,0.893c0.623,0.271,1.258,0.508,1.901,0.699
			c0.641,0.198,1.292,0.359,1.946,0.456c0.653,0.116,1.312,0.163,1.966,0.161c0.329,0.017,0.652-0.025,0.978-0.043
			c0.327-0.012,0.645-0.09,0.968-0.13c0.319-0.053,0.607-0.143,0.913-0.207L132.115,168.151z"/>
	</g>
	<g>
		<path stroke="#000000" stroke-width="1.9239" stroke-linecap="round" stroke-miterlimit="10" d="M44.549,92.985
			c12.388,2.407,36.938,54.918,35.257,76.698c0.332,8.652-29.163,20.389-39.446,17.342c-8.864-2.274-32.812-67.731-30.346-75.633
			C13.398,100.544,37.35,91.586,44.549,92.985z"/>
	</g>
</g>
<g id="Calque_35">
	<g>
		<path fill="#C11718" d="M125.411,164.453c-5.034,1.925-10.445,0.095-15.922-3.84c0,0-10.559-0.77-15.898-0.134
			c-18.311,5.676-31.079-2.906-59.967,9.406l-14.506-61.554c12.495-12.902,24.812-22.839,36.888-29.99
			C67.39,71.6,78.561,67.333,89.465,65.391l0.521-0.186C271.178,4.635,249.506,187.577,243.378,195.88
			c-4.019,5.447-58.001,41.642-91.47,28.806c-18.646-10.555-28.795-26.422-25.598-41.88c1.447-3.913,3.574-7.249,6.346-10.297
			l0.02-0.022C133.594,167.958,126.518,164.03,125.411,164.453z"/>
		<path d="M125.727,165.397l-1.023,0.336c-0.388,0.092-0.785,0.207-1.168,0.271c-0.383,0.051-0.762,0.139-1.148,0.154
			c-0.385,0.023-0.771,0.068-1.155,0.052c-0.769,0.002-1.537-0.055-2.286-0.187c-0.753-0.113-1.491-0.296-2.209-0.517
			c-0.721-0.215-1.424-0.478-2.106-0.774c-0.686-0.291-1.354-0.614-2.001-0.97c-1.3-0.7-2.536-1.493-3.723-2.342l0.508,0.185
			c-2.62-0.173-5.267-0.306-7.896-0.354c-0.659-0.023-1.314-0.014-1.971-0.02c-0.657-0.004-1.314-0.011-1.965,0.016l-0.979,0.027
			c-0.324,0.015-0.656,0.007-0.974,0.039l-1.922,0.153l0.177-0.038c-1.248,0.374-2.505,0.718-3.778,0.994
			c-1.273,0.273-2.554,0.514-3.842,0.682c-2.575,0.356-5.166,0.516-7.737,0.564c-5.147,0.1-10.225-0.116-15.266,0.147
			c-5.04,0.236-10.037,0.939-14.929,2.138c-1.221,0.307-2.439,0.627-3.646,0.988c-1.209,0.353-2.41,0.738-3.604,1.146
			s-2.381,0.834-3.557,1.295c-1.185,0.434-2.341,0.947-3.513,1.417l-1.095,0.438l-0.265-1.126L18.148,108.56l-0.127-0.539
			l0.381-0.383l0.001-0.001l3.678-3.755c1.209-1.269,2.505-2.452,3.757-3.68l1.894-1.825l1.947-1.77
			c1.304-1.173,2.579-2.38,3.931-3.501c1.344-1.129,2.654-2.3,4.027-3.396l4.128-3.279l4.238-3.142l4.351-2.994
			c1.47-0.97,2.975-1.888,4.462-2.835c1.544-0.943,3.031-1.764,4.55-2.652c1.557-0.834,3.137-1.665,4.714-2.474
			c1.604-0.742,3.182-1.544,4.811-2.235c1.638-0.671,3.246-1.417,4.923-1.997l2.496-0.917c0.837-0.292,1.69-0.538,2.535-0.809
			c1.684-0.563,3.408-0.995,5.128-1.44c1.715-0.465,3.473-0.756,5.209-1.142l-0.261,0.069c7.227-2.477,14.503-4.677,21.881-6.565
			c7.378-1.882,14.851-3.444,22.409-4.543c7.554-1.117,15.203-1.735,22.876-1.74c7.67,0.01,15.374,0.712,22.931,2.299
			c7.553,1.576,14.95,4.106,21.846,7.675c6.893,3.569,13.25,8.201,18.753,13.683c5.507,5.481,10.164,11.769,13.973,18.492
			c3.815,6.727,6.788,13.885,9.101,21.216c2.322,7.333,3.926,14.862,5.03,22.44c1.096,7.582,1.667,15.225,1.784,22.87
			c0.106,7.646-0.216,15.296-1.126,22.919c-0.485,3.822-1.024,7.593-2.119,11.476c-0.15,0.493-0.303,0.983-0.514,1.512
			c-0.105,0.265-0.215,0.528-0.381,0.842c-0.07,0.142-0.173,0.317-0.3,0.504c-0.051,0.071-0.015,0.032-0.137,0.191l-0.056,0.069
			l-0.112,0.138c-0.159,0.188-0.464,0.525-0.628,0.678c-0.194,0.196-0.386,0.376-0.577,0.549c-0.382,0.35-0.763,0.674-1.145,0.991
			c-1.527,1.261-3.082,2.399-4.658,3.507c-6.313,4.393-12.909,8.254-19.722,11.724c-6.817,3.451-13.851,6.499-21.115,8.958
			c-7.261,2.442-14.771,4.315-22.485,5.044c-7.679,0.708-15.688,0.22-23.084-2.633l-0.116-0.045l-0.096-0.056
			c-3.867-2.226-7.559-4.78-10.949-7.712c-3.383-2.934-6.478-6.24-9.04-9.956c-0.646-0.924-1.25-1.879-1.812-2.859
			c-0.573-0.974-1.095-1.979-1.575-3.006c-0.487-1.022-0.915-2.074-1.304-3.141c-0.387-1.067-0.709-2.158-0.997-3.259
			c-0.261-1.107-0.49-2.224-0.639-3.354c-0.148-1.129-0.255-2.266-0.267-3.406c-0.037-1.14,0.021-2.28,0.124-3.414
			c0.106-1.135,0.298-2.259,0.525-3.373l0.02-0.099l0.027-0.065l0.602-1.462l0.674-1.431l0.745-1.395l0.814-1.353l0.88-1.31
			l0.94-1.262l0.995-1.216l1.027-1.152l-0.224,0.455v-0.001c0.145-0.734,0.014-1.508-0.341-2.256
			c-0.358-0.747-0.914-1.45-1.557-2.079c-0.648-0.626-1.383-1.192-2.164-1.662c-0.39-0.234-0.792-0.447-1.189-0.617
			c-0.195-0.079-0.397-0.16-0.569-0.204c-0.081-0.021-0.176-0.045-0.216-0.045c-0.066-0.021-0.06,0.024,0.103-0.041L125.727,165.397
			z M125.056,163.522c0.4-0.131,0.658-0.096,0.836-0.077c0.206,0.021,0.352,0.063,0.51,0.103c0.306,0.081,0.563,0.187,0.825,0.292
			c0.511,0.219,0.982,0.472,1.439,0.746c0.911,0.549,1.753,1.195,2.526,1.94c0.765,0.752,1.465,1.612,1.965,2.65
			c0.245,0.52,0.435,1.085,0.528,1.683c0.094,0.597,0.085,1.222-0.033,1.824l0,0.001l-0.035,0.234l-0.189,0.222l-0.977,1.146
			l-0.911,1.166l-0.854,1.203l-0.794,1.241l-0.729,1.277l-0.664,1.312l-0.596,1.343l-0.528,1.371l0.047-0.164
			c-0.186,1.034-0.34,2.072-0.414,3.118c-0.076,1.044-0.113,2.093-0.06,3.14c0.027,1.047,0.145,2.09,0.297,3.126
			c0.154,1.037,0.383,2.062,0.64,3.079c0.283,1.012,0.597,2.014,0.973,2.997c0.377,0.981,0.79,1.952,1.26,2.896
			c0.463,0.947,0.965,1.877,1.517,2.779c0.54,0.908,1.122,1.794,1.744,2.651c2.465,3.45,5.447,6.536,8.717,9.275
			c3.271,2.746,6.862,5.107,10.589,7.219l-0.211-0.1c6.8,2.546,14.305,2.961,21.628,2.207c7.351-0.77,14.602-2.648,21.64-5.098
			c7.042-2.464,13.892-5.515,20.532-8.963c6.628-3.46,13.12-7.251,19.204-11.53c1.514-1.07,3.007-2.176,4.393-3.328
			c0.344-0.287,0.682-0.578,0.996-0.868c0.159-0.146,0.312-0.289,0.45-0.43c0.176-0.176,0.188-0.19,0.338-0.358
			c0.233-0.209,0.538-1.081,0.778-1.896c0.952-3.403,1.499-7.147,1.945-10.822c0.859-7.4,1.152-14.899,1.022-22.374
			c-0.286-14.944-2.316-29.905-6.735-44.116c-2.215-7.095-5.059-13.991-8.69-20.437c-3.625-6.443-8.039-12.432-13.241-17.642
			c-5.2-5.209-11.194-9.605-17.723-13.012c-6.531-3.404-13.568-5.842-20.813-7.376c-7.245-1.552-14.683-2.232-22.132-2.299
			c-7.452-0.063-14.927,0.471-22.344,1.499c-7.42,1.01-14.788,2.479-22.082,4.27c-7.292,1.795-14.526,3.913-21.628,6.274
			l-0.114,0.038l-0.147,0.032c-1.673,0.358-3.367,0.62-5.024,1.054c-1.662,0.416-3.328,0.814-4.96,1.345
			c-0.818,0.255-1.646,0.484-2.458,0.759l-2.428,0.855c-1.633,0.533-3.206,1.236-4.807,1.86c-1.594,0.645-3.142,1.403-4.716,2.099
			l-4.594,2.316c-1.507,0.849-3.089,1.692-4.535,2.546c-1.471,0.904-2.96,1.78-4.418,2.708l-4.32,2.871l-4.22,3.024l-4.121,3.167
			c-1.372,1.059-2.683,2.194-4.028,3.288c-1.354,1.084-2.633,2.258-3.941,3.397l-1.954,1.719l-1.904,1.777
			c-1.259,1.196-2.561,2.346-3.78,3.584l-3.707,3.665l-0.001,0.001l0.254-0.921l14.506,61.554l-1.359-0.688
			c1.193-0.479,2.369-1.001,3.578-1.444c1.199-0.469,2.41-0.904,3.629-1.321c1.219-0.415,2.447-0.81,3.684-1.171
			c1.235-0.37,2.483-0.698,3.734-1.013c5.014-1.229,10.159-1.951,15.305-2.191c5.148-0.269,10.273-0.05,15.321-0.149
			c2.525-0.048,5.033-0.204,7.509-0.547c1.24-0.16,2.466-0.392,3.686-0.653c1.219-0.265,2.421-0.594,3.616-0.951l0.107-0.032
			l0.07-0.006l2.044-0.163c0.342-0.034,0.675-0.026,1.013-0.041l1.01-0.028c0.675-0.027,1.344-0.021,2.013-0.017
			c0.669,0.006,1.341-0.004,2.007,0.02c2.675,0.05,5.329,0.183,8.001,0.359l0.276,0.018l0.233,0.167
			c1.13,0.807,2.297,1.555,3.504,2.205c0.602,0.331,1.218,0.628,1.843,0.893c0.623,0.271,1.257,0.509,1.9,0.699
			c0.641,0.198,1.292,0.359,1.946,0.456c0.653,0.116,1.312,0.162,1.966,0.161c0.329,0.017,0.652-0.025,0.979-0.043
			c0.327-0.011,0.645-0.091,0.967-0.13c0.319-0.053,0.607-0.143,0.914-0.207l1.006-0.33L125.056,163.522z"/>
	</g>
	<path opacity="0.2" fill="#060707" d="M136.682,169.676c23.324,23.254,49.778,35.195,108.511,12.908
		c-0.458,4.238-0.813,8.511-2.966,12.868c-23.065,19.964-61.974,33.858-82.301,30.324c-15.465-2.759-32.406-20.665-33.31-36.323
		C126.189,182.063,129.579,177.202,136.682,169.676z"/>
	<path opacity="0.2" fill="#060707" d="M76.53,131.395c23.325,23.254,78.415,12.218,78.983-23.881
		c21.307,15.915,2.194,68.749-38.889,53.77C105.318,157.162,90.617,147.663,76.53,131.395z"/>
	<path fill="none" stroke="#000000" stroke-width="1.8" stroke-linecap="round" stroke-miterlimit="10" d="M109.351,160.342
		c-6.878-4.94-13.64-12.787-19.118-19.236c-4.545-5.403-9.631-7.536-13.702-9.711"/>
	<path fill="none" stroke="#000000" stroke-width="1.8" stroke-miterlimit="10" d="M89.467,65.381
		c12.485-2.224,24.622-1.403,36.331,2.238c24.053,11.002,39.765,45.537,35.056,66.783c-3.951,11.457-23.292,24.499-35.443,30.051"/>
	<g>
		<path d="M132.006,172.042c0,0,0.362-0.356,0.995-0.979c0.316-0.312,0.701-0.69,1.142-1.124c0.432-0.439,1.012-0.887,1.594-1.399
			c0.601-0.492,1.218-1.088,1.933-1.601c0.703-0.532,1.445-1.094,2.212-1.675c0.774-0.568,1.603-1.112,2.429-1.688
			c0.823-0.581,1.682-1.132,2.545-1.676c0.864-0.542,1.713-1.11,2.575-1.622c0.858-0.518,1.703-1.027,2.521-1.521
			c1.637-0.98,3.185-1.859,4.5-2.631c2.648-1.509,4.414-2.516,4.414-2.516c0.197-0.112,0.448-0.043,0.561,0.153
			c0.11,0.193,0.044,0.44-0.145,0.556c0,0-1.733,1.058-4.332,2.645c-1.289,0.809-2.806,1.731-4.405,2.756
			c-0.798,0.515-1.622,1.047-2.46,1.587c-0.842,0.534-1.664,1.122-2.504,1.685c-0.839,0.565-1.673,1.135-2.465,1.732
			c-0.796,0.592-1.598,1.152-2.34,1.733c-0.733,0.591-1.442,1.162-2.115,1.703c-0.69,0.527-1.245,1.103-1.808,1.591
			c-0.545,0.511-1.067,0.929-1.49,1.386c-0.428,0.447-0.801,0.837-1.108,1.158c-0.614,0.642-0.965,1.009-0.965,1.009
			c-0.343,0.36-0.912,0.374-1.272,0.031c-0.36-0.342-0.374-0.912-0.032-1.272C131.99,172.057,132,172.046,132.006,172.042z"/>
	</g>
	<g>
		<path d="M135.651,168.47c0,0,0.119-0.328,0.326-0.903c0.104-0.287,0.231-0.637,0.376-1.037c0.201-0.414,0.428-0.882,0.676-1.392
			c0.225-0.526,0.598-0.994,0.926-1.539c0.317-0.551,0.798-1.03,1.217-1.578c0.472-0.5,0.965-1.021,1.513-1.485
			c0.546-0.469,1.115-0.921,1.713-1.323c0.585-0.422,1.2-0.786,1.793-1.152c0.595-0.349,1.18-0.692,1.746-1.024
			c0.552-0.336,1.098-0.645,1.567-0.979c0.491-0.315,0.902-0.656,1.277-0.977c0.354-0.334,0.66-0.659,0.896-0.969
			c0.198-0.33,0.429-0.592,0.527-0.853c0.216-0.515,0.34-0.81,0.34-0.81l0.037-0.089c0.107-0.256,0.401-0.376,0.657-0.269
			c0.249,0.104,0.369,0.386,0.276,0.637c0,0-0.131,0.355-0.361,0.979c-0.11,0.314-0.358,0.64-0.587,1.043
			c-0.262,0.375-0.604,0.772-0.994,1.168c-0.406,0.38-0.854,0.779-1.361,1.136c-0.495,0.382-1.041,0.72-1.592,1.087
			c-0.55,0.354-1.117,0.719-1.694,1.09c-0.561,0.379-1.136,0.752-1.667,1.17c-0.547,0.4-1.053,0.84-1.533,1.287
			c-0.483,0.443-0.903,0.931-1.31,1.396c-0.352,0.51-0.768,0.945-1.027,1.453c-0.267,0.495-0.598,0.937-0.761,1.388
			c-0.196,0.439-0.375,0.843-0.534,1.199c-0.128,0.405-0.241,0.759-0.333,1.05c-0.184,0.583-0.289,0.916-0.289,0.916
			c-0.16,0.507-0.7,0.788-1.207,0.628s-0.788-0.7-0.628-1.207C135.641,168.499,135.647,168.481,135.651,168.47z"/>
	</g>
	<g>
		<path fill="#E2C9C9" stroke="#000000" stroke-width="1.9239" stroke-linecap="round" stroke-miterlimit="10" d="M36.568,88.658
			c12.388,2.407,36.938,54.918,35.257,76.698c0.333,8.652-29.163,20.389-39.446,17.342c-8.863-2.273-32.811-67.731-30.346-75.633
			C5.417,96.217,29.369,87.259,36.568,88.658z"/>
		<path opacity="0.2" fill="#060707" d="M66.605,138.696c5.962,25.375,4.137,16.064,4.39,26.659
			c-6.775,10.402-30.073,19.669-37.698,16.341c-0.749,0.195-5.893-3.642-5.958-7.074C26.535,163.87,53.876,141.51,66.605,138.696z"
			/>
		<g>
			<path d="M7.148,110.523c0,0,0.437-0.351,1.2-0.964c0.374-0.313,0.881-0.651,1.435-1.063c0.553-0.423,1.215-0.821,1.925-1.287
				c0.717-0.45,1.513-0.908,2.356-1.389c0.857-0.455,1.752-0.955,2.718-1.388c0.95-0.469,1.961-0.887,2.985-1.321
				c1.037-0.398,2.083-0.832,3.162-1.167l1.613-0.516c0.543-0.149,1.083-0.298,1.62-0.446c1.073-0.295,2.148-0.516,3.184-0.738
				c1.045-0.181,2.053-0.375,3.022-0.466c0.483-0.056,0.953-0.11,1.408-0.162c0.458-0.027,0.899-0.054,1.323-0.08
				c0.847-0.072,1.626-0.059,2.317-0.047c0.69-0.002,1.291,0.016,1.786,0.067c0.988,0.075,1.552,0.119,1.552,0.119
				c0.206,0.016,0.36,0.195,0.345,0.401c-0.015,0.201-0.187,0.353-0.386,0.346l-0.027-0.001c0,0-0.553-0.02-1.521-0.054
				c-0.482-0.031-1.07-0.025-1.744,0.004c-0.674,0.014-1.433,0.038-2.259,0.12c-0.413,0.034-0.844,0.068-1.289,0.104
				c-0.443,0.061-0.901,0.124-1.372,0.188c-0.946,0.104-1.925,0.333-2.947,0.506c-1.013,0.223-2.063,0.444-3.113,0.739
				c-0.524,0.147-1.054,0.296-1.585,0.445l-1.578,0.515c-1.055,0.336-2.09,0.737-3.111,1.121c-1.009,0.415-2.007,0.814-2.944,1.265
				c-1.892,0.864-3.61,1.77-5.046,2.609c-0.703,0.44-1.378,0.808-1.93,1.187c-0.559,0.376-1.06,0.673-1.452,0.971
				c-0.792,0.576-1.245,0.905-1.245,0.905c-0.147,0.108-0.355,0.076-0.462-0.072C6.984,110.833,7.012,110.633,7.148,110.523z"/>
		</g>
		<g>
			<path d="M10.43,123.083c0,0,0.471-0.363,1.295-0.999c0.409-0.32,0.964-0.658,1.572-1.074c0.608-0.424,1.332-0.808,2.107-1.271
				c1.573-0.871,3.44-1.825,5.488-2.736c2.039-0.934,4.255-1.826,6.485-2.679c4.478-1.656,9.025-3.105,12.458-4.108
				c3.435-0.997,5.749-1.575,5.749-1.575l0.005-0.001c0.292-0.073,0.589,0.105,0.662,0.397c0.072,0.29-0.102,0.583-0.388,0.66
				c0,0-2.292,0.616-5.705,1.622c-3.418,0.987-7.946,2.414-12.396,4.043c-2.221,0.823-4.443,1.648-6.476,2.537
				c-2.045,0.861-3.905,1.767-5.47,2.592c-0.763,0.44-1.499,0.803-2.096,1.185c-0.603,0.382-1.142,0.68-1.564,0.986
				c-0.847,0.604-1.331,0.95-1.331,0.95c-0.148,0.107-0.355,0.073-0.462-0.075C10.259,123.394,10.291,123.192,10.43,123.083z"/>
		</g>
		<g>
			<path d="M22.791,158.646c0,0,0.676-0.052,1.858-0.143c0.599-0.027,1.299-0.127,2.095-0.254c0.799-0.107,1.699-0.252,2.682-0.472
				c0.49-0.105,1.005-0.195,1.53-0.323c0.523-0.139,1.064-0.281,1.62-0.429c1.119-0.267,2.262-0.692,3.466-1.044
				c1.179-0.438,2.418-0.831,3.634-1.354c0.611-0.252,1.227-0.506,1.845-0.761l1.835-0.827c4.893-2.232,9.553-4.973,12.949-7.167
				c0.84-0.563,1.631-1.049,2.305-1.52c0.678-0.465,1.279-0.857,1.757-1.205c0.962-0.686,1.512-1.077,1.512-1.077l0.007-0.005
				c0.169-0.12,0.403-0.081,0.523,0.087c0.117,0.164,0.082,0.391-0.075,0.513c0,0-0.536,0.418-1.475,1.151
				c-0.947,0.721-2.302,1.752-3.984,2.91c-0.839,0.581-1.767,1.185-2.745,1.828c-0.997,0.613-2.025,1.3-3.14,1.925
				c-1.098,0.654-2.259,1.286-3.441,1.922c-1.189,0.623-2.404,1.247-3.642,1.824c-1.235,0.585-2.489,1.127-3.741,1.622
				c-1.237,0.53-2.504,0.932-3.708,1.376c-1.231,0.366-2.401,0.786-3.555,1.037c-0.572,0.142-1.128,0.279-1.667,0.412
				c-0.541,0.123-1.072,0.208-1.577,0.307c-0.507,0.093-0.992,0.182-1.454,0.267c-0.47,0.054-0.917,0.105-1.336,0.153
				c-0.84,0.104-1.568,0.18-2.157,0.187c-1.185,0.052-1.862,0.081-1.862,0.081c-0.282,0.012-0.521-0.207-0.533-0.489
				C22.307,158.902,22.518,158.667,22.791,158.646z"/>
		</g>
		<g>
			<path d="M28.467,170.836c0,0,0.619-0.055,1.702-0.149c0.542-0.048,1.199-0.105,1.954-0.172c0.76-0.043,1.597-0.177,2.505-0.33
				c0.91-0.146,1.895-0.305,2.937-0.472c1.039-0.191,2.122-0.487,3.251-0.73c0.563-0.129,1.136-0.26,1.716-0.393
				c0.58-0.131,1.147-0.339,1.73-0.507c1.16-0.355,2.339-0.717,3.517-1.078c1.152-0.438,2.304-0.876,3.438-1.307
				c1.15-0.395,2.217-0.932,3.261-1.424c1.033-0.515,2.081-0.919,2.999-1.444c0.917-0.526,1.785-1.023,2.586-1.483
				c0.401-0.229,0.786-0.447,1.152-0.656c0.354-0.225,0.673-0.466,0.982-0.677c0.614-0.431,1.149-0.807,1.59-1.115
				c0.883-0.619,1.388-0.973,1.388-0.973l0.034-0.024c0.169-0.118,0.402-0.077,0.521,0.092c0.116,0.165,0.079,0.392-0.081,0.513
				c0,0-0.5,0.378-1.374,1.039c-0.438,0.331-0.969,0.733-1.579,1.194c-0.307,0.228-0.625,0.484-0.978,0.727
				c-0.367,0.222-0.752,0.454-1.154,0.696c-0.807,0.483-1.681,1.007-2.605,1.561c-0.928,0.548-1.974,0.996-3.026,1.517
				c-1.06,0.507-2.144,1.057-3.309,1.464c-1.15,0.443-2.318,0.895-3.487,1.345c-1.199,0.358-2.399,0.717-3.58,1.069
				c-0.593,0.165-1.171,0.37-1.761,0.497c-0.59,0.13-1.173,0.257-1.746,0.383c-1.148,0.241-2.248,0.519-3.313,0.683
				c-1.07,0.144-2.082,0.28-3.016,0.406c-0.466,0.063-0.914,0.122-1.338,0.179c-0.425,0.048-0.827,0.045-1.205,0.068
				c-0.757,0.033-1.416,0.063-1.959,0.087c-1.086,0.049-1.707,0.076-1.707,0.076c-0.183,0.008-0.337-0.133-0.346-0.315
				C28.156,171.003,28.292,170.852,28.467,170.836z"/>
		</g>
		<g>
			<path d="M14.102,134.267c0,0,0.621-0.181,1.706-0.499c0.538-0.167,1.161-0.414,1.89-0.67c0.725-0.264,1.542-0.62,2.437-0.962
				c3.562-1.47,8.246-3.644,13.004-5.697c2.394-0.994,4.792-1.986,7.099-2.794c1.14-0.434,2.28-0.761,3.352-1.092
				c1.073-0.329,2.12-0.553,3.069-0.801c0.976-0.167,1.861-0.355,2.665-0.433c0.81-0.05,1.508-0.134,2.092-0.13
				c1.172,0.066,1.842,0.104,1.842,0.104c0.259,0.015,0.458,0.236,0.443,0.496c-0.014,0.251-0.223,0.446-0.473,0.444l-0.079-0.001
				c0,0-0.622-0.006-1.709-0.016c-0.544,0.021-1.21,0.134-1.969,0.214c-0.759,0.107-1.607,0.336-2.538,0.51
				c-0.919,0.266-1.923,0.505-2.966,0.853c-1.043,0.347-2.142,0.708-3.268,1.134c-2.263,0.808-4.637,1.808-7.009,2.811
				c-2.374,1.016-4.749,2.032-6.975,2.984c-2.225,0.963-4.341,1.791-6.162,2.486c-0.922,0.329-1.752,0.643-2.523,0.875
				c-0.77,0.227-1.438,0.448-1.989,0.588c-1.101,0.26-1.729,0.408-1.729,0.408c-0.225,0.053-0.451-0.086-0.503-0.312
				C13.758,134.549,13.891,134.33,14.102,134.267z"/>
		</g>
		<g>
			<path d="M18.646,145.558c0,0,0.624-0.139,1.715-0.383c0.545-0.122,1.208-0.27,1.968-0.44c0.376-0.094,0.793-0.154,1.202-0.292
				c0.409-0.133,0.839-0.274,1.288-0.421c0.897-0.286,1.869-0.595,2.896-0.922c1.009-0.408,2.073-0.838,3.174-1.283
				c1.109-0.417,2.219-0.962,3.359-1.473c1.14-0.514,2.295-1.042,3.439-1.611c2.287-1.123,4.597-2.223,6.768-3.247
				c2.165-1.034,4.238-1.907,5.998-2.677c3.576-1.428,5.99-2.294,5.99-2.293c0.234-0.084,0.492,0.038,0.576,0.272
				c0.079,0.221-0.025,0.463-0.234,0.56l-0.017,0.008c0,0-2.318,1.068-5.816,2.593c-0.862,0.412-1.796,0.857-2.784,1.328
				c-0.989,0.468-2.044,0.932-3.115,1.468c-2.147,1.052-4.443,2.167-6.763,3.257c-1.149,0.559-2.324,1.081-3.482,1.59
				c-1.162,0.501-2.276,1.053-3.423,1.449c-1.132,0.422-2.227,0.831-3.265,1.218c-1.073,0.31-2.088,0.603-3.025,0.874
				c-0.937,0.274-1.796,0.507-2.565,0.609c-0.768,0.134-1.436,0.251-1.987,0.347c-1.102,0.192-1.731,0.303-1.731,0.303
				c-0.231,0.04-0.452-0.114-0.492-0.346C18.281,145.822,18.427,145.608,18.646,145.558z"/>
		</g>
	</g>
	<path opacity="0.2" fill="#FFFFFF" d="M139.003,65.216c29.398-12.281,62.097-0.224,74.096,18.976
		c11.999,19.199,21.599,32.403,7.2,32.733c-14.399,0.331-11.313-21.634-30.599-32.733C170.415,73.092,155.502,75.492,139.003,65.216
		z"/>
	<path opacity="0.2" fill="#FFFFFF" d="M79.193,78.932c29.399-12.281,41.863-9.437,52.939,1.668
		c15.988,16.03,14.933,27.48,0.534,27.811c-14.399,0.331,6.386-9.483-12.899-20.582C100.481,76.729,87.668,87.829,79.193,78.932z"/>
	<path opacity="0.4" fill="#FFFFFF" d="M5.272,109.17c9.492-11.682,22.084-15.446,29.1-14.599
		c7.015,0.847,14.122,10.814,13.1,16.215c-1.022,5.401-9.163-3.42-17.3-6.515S5.272,109.17,5.272,109.17z"/>
</g>
<g id="ecriture">
	<g id="E_1_">
		<g id="fond" opacity="0.7">
			<polygon stroke="#000000" stroke-width="1.8" stroke-linecap="round" stroke-linejoin="round" stroke-miterlimit="10" points="
				688.963,207.161 752.777,230.374 753.685,229.715 752.21,211.551 748.678,207.03 715.399,194.48 716.482,189.819 
				729.082,192.329 730.669,183.118 719.171,180.304 721.5,172.852 744.958,178.086 759.073,161.656 758.499,158.595 
				723.479,144.964 696.827,166.159 			"/>
		</g>
		<g id="couleur">
			
				<polygon fill="#D8C409" stroke="#000000" stroke-width="1.8" stroke-linecap="round" stroke-linejoin="round" stroke-miterlimit="10" points="
				687.258,203.518 751.073,226.73 751.98,226.072 750.506,207.908 746.973,203.387 713.695,190.837 714.778,186.175 
				727.378,188.685 728.965,179.474 717.467,176.662 719.796,169.208 743.255,174.444 757.369,158.013 756.795,154.952 
				721.774,141.322 695.123,162.516 			"/>
		</g>
	</g>
	<g id="C">
		<g id="fond_1_" opacity="0.7">
			<polygon stroke="#000000" stroke-width="1.8" stroke-linecap="round" stroke-linejoin="round" stroke-miterlimit="10" points="
				684.861,186.086 673.498,179.577 666.318,184.637 653.127,182.054 653.109,161.064 675.16,153.672 676.639,159.737 
				689.865,159.674 692.719,130.606 688.792,126.231 637.969,142.764 633.217,197.782 636.285,200.713 672.031,207.413 			"/>
		</g>
		<g id="couleur_1_">
			
				<polygon fill="#D8C409" stroke="#000000" stroke-width="1.8" stroke-linecap="round" stroke-linejoin="round" stroke-miterlimit="10" points="
				682.117,182.284 670.755,175.773 663.573,180.834 650.383,178.251 650.365,157.26 672.416,149.87 673.895,155.933 
				687.121,155.872 689.974,126.803 686.047,122.428 635.224,138.96 630.473,193.979 633.541,196.91 669.287,203.61 			"/>
		</g>
	</g>
	<g id="A_1_">
		<g id="fond_3_" opacity="0.7">
			<defs>
				<filter id="Adobe_OpacityMaskFilter" filterUnits="userSpaceOnUse" x="540.693" y="113.416" width="80.821" height="85.653">
					<feFlood  style="flood-color:white;flood-opacity:1" result="back"/>
					<feBlend  in="SourceGraphic" in2="back" mode="normal"/>
				</filter>
			</defs>
			<mask maskUnits="userSpaceOnUse" x="540.693" y="113.416" width="80.821" height="85.653" id="SVGID_1_">
				<g filter="url(#Adobe_OpacityMaskFilter)">
					<polygon stroke="#000000" stroke-width="1.8" stroke-linecap="round" stroke-linejoin="round" stroke-miterlimit="10" points="
						576.745,133.083 599.522,142.585 595.148,157.576 571.534,161.229 577.275,146.272 					"/>
				</g>
			</mask>
			
				<polygon mask="url(#SVGID_1_)" stroke="#000000" stroke-width="1.8" stroke-linecap="round" stroke-linejoin="round" stroke-miterlimit="10" points="
				620.614,198.168 600.709,194.876 597.139,191.881 595.123,173.789 575.727,176.907 568.646,190.905 541.594,192.208 
				553.76,167.712 563.017,125.202 559.054,114.316 601.535,116.241 608.386,122.703 			"/>
			
				<polygon fill="none" stroke="#000000" stroke-width="1.8" stroke-linecap="round" stroke-linejoin="round" stroke-miterlimit="10" points="
				573.771,128.217 596.548,137.719 592.174,152.709 568.56,156.364 574.301,141.407 			"/>
		</g>
		<g id="couleur_3_">
			<defs>
				<filter id="Adobe_OpacityMaskFilter_1_" filterUnits="userSpaceOnUse" x="537.719" y="108.551" width="80.821" height="85.653">
					<feFlood  style="flood-color:white;flood-opacity:1" result="back"/>
					<feBlend  in="SourceGraphic" in2="back" mode="normal"/>
				</filter>
			</defs>
			<mask maskUnits="userSpaceOnUse" x="537.719" y="108.551" width="80.821" height="85.653" id="SVGID_2_">
				<g filter="url(#Adobe_OpacityMaskFilter_1_)">
					<polygon stroke="#000000" stroke-width="1.8" stroke-linecap="round" stroke-linejoin="round" stroke-miterlimit="10" points="
						573.771,128.217 596.548,137.719 592.174,152.709 568.56,156.364 574.301,141.407 					"/>
				</g>
			</mask>
			
				<polygon mask="url(#SVGID_2_)" fill="#D8C409" stroke="#000000" stroke-width="1.8" stroke-linecap="round" stroke-linejoin="round" stroke-miterlimit="10" points="
				617.64,193.303 597.733,190.01 594.164,187.016 592.148,168.922 572.751,172.042 565.671,186.041 538.619,187.342 
				550.784,162.847 560.042,120.336 556.079,109.451 598.561,111.375 605.411,117.837 			"/>
			
				<polygon fill="none" stroke="#000000" stroke-width="1.8" stroke-linecap="round" stroke-linejoin="round" stroke-miterlimit="10" points="
				573.771,128.217 596.548,137.719 592.174,152.709 568.56,156.364 574.301,141.407 			"/>
		</g>
	</g>
	<g id="F">
		<g id="fond_5_" opacity="0.7">
			
				<polygon stroke="#000000" stroke-width="2.5674" stroke-linecap="round" stroke-linejoin="round" stroke-miterlimit="10" points="
				464.334,183.306 464.364,188.013 525.571,188.667 518.171,163.069 508.063,162.863 507.904,114.087 551.612,106.471 
				553.265,86.799 551.741,75.147 507.085,85.565 506.548,61.554 581.53,54.514 581.14,38.442 564.104,9.739 466.926,33.351 
				475.4,56.24 480.695,145.811 471.702,175.792 			"/>
		</g>
		<g id="couleur_-_copie_3">
			
				<polygon fill="#D8C409" stroke="#000000" stroke-width="1.8" stroke-linecap="round" stroke-linejoin="round" stroke-miterlimit="10" points="
				459.207,179.163 459.237,183.87 520.444,184.522 513.044,158.924 502.936,158.719 502.777,109.944 546.486,102.328 
				548.138,82.655 546.613,71.004 501.958,81.421 501.421,57.411 576.404,50.37 576.013,34.298 558.978,5.595 461.8,29.207 
				470.273,52.096 475.568,141.667 466.575,171.649 			"/>
		</g>
	</g>
	<g id="T">
		<g id="fond_2_" opacity="0.7">
			<polygon stroke="#000000" stroke-width="1.8" stroke-linecap="round" stroke-linejoin="round" stroke-miterlimit="10" points="
				357.962,94.462 369.227,195.483 370.275,196.472 390.782,194.635 396.071,186.48 380.449,83.296 383.157,80.523 421.68,71.591 
				434.102,65.882 428.48,43.59 359.289,62.863 298.554,75.573 295.984,78.523 304.743,99.821 350.616,87.15 			"/>
		</g>
		<g id="couleur_2_">
			
				<polygon fill="#D8C409" stroke="#000000" stroke-width="1.8" stroke-linecap="round" stroke-linejoin="round" stroke-miterlimit="10" points="
				354.128,91.355 365.394,192.375 366.441,193.366 386.948,191.529 392.237,183.374 376.616,80.189 379.323,77.416 417.847,68.484 
				430.268,62.775 424.647,40.484 355.456,59.756 294.72,72.467 292.15,75.417 300.909,96.714 346.783,84.044 			"/>
		</g>
	</g>
	<g id="O">
		<g id="fond_4_" opacity="0.7">
			<defs>
				<filter id="Adobe_OpacityMaskFilter_2_" filterUnits="userSpaceOnUse" x="264.867" y="115.169" width="84.352" height="90.007">
					<feFlood  style="flood-color:white;flood-opacity:1" result="back"/>
					<feBlend  in="SourceGraphic" in2="back" mode="normal"/>
				</filter>
			</defs>
			<mask maskUnits="userSpaceOnUse" x="264.867" y="115.169" width="84.352" height="90.007" id="SVGID_3_">
				<g filter="url(#Adobe_OpacityMaskFilter_2_)">
					
						<circle stroke="#000000" stroke-width="2.4037" stroke-linecap="round" stroke-linejoin="round" stroke-miterlimit="10" cx="299.055" cy="168.32" r="12.458"/>
				</g>
			</mask>
			
				<path mask="url(#SVGID_3_)" stroke="#000000" stroke-width="1.8" stroke-linecap="round" stroke-linejoin="round" stroke-miterlimit="10" d="
				M345.227,163.905c-7.178,21.177-27.139,37.183-47.984,40.054c-20.845,2.87-32.688-13.969-31.377-38.731
				c1.29-24.354,20.707-46.548,41.629-48.786C343.609,112.579,354.382,139.494,345.227,163.905z"/>
			<g id="Calque_28">
			</g>
			<g id="Calque_28_-_copie">
				
					<circle fill="none" stroke="#000000" stroke-width="2.4037" stroke-linecap="round" stroke-linejoin="round" stroke-miterlimit="10" cx="293.296" cy="166.084" r="12.458"/>
			</g>
		</g>
		<g id="couleur_4_">
			<defs>
				<filter id="Adobe_OpacityMaskFilter_3_" filterUnits="userSpaceOnUse" x="259.108" y="112.934" width="84.352" height="90.007">
					<feFlood  style="flood-color:white;flood-opacity:1" result="back"/>
					<feBlend  in="SourceGraphic" in2="back" mode="normal"/>
				</filter>
			</defs>
			<mask maskUnits="userSpaceOnUse" x="259.108" y="112.934" width="84.352" height="90.007" id="SVGID_4_">
				<g filter="url(#Adobe_OpacityMaskFilter_3_)">
					
						<circle stroke="#000000" stroke-width="2.4037" stroke-linecap="round" stroke-linejoin="round" stroke-miterlimit="10" cx="293.296" cy="166.084" r="12.458"/>
				</g>
			</mask>
			
				<path mask="url(#SVGID_4_)" fill="#D8C409" stroke="#000000" stroke-width="1.8" stroke-linecap="round" stroke-linejoin="round" stroke-miterlimit="10" d="
				M339.468,161.669c-7.178,21.177-27.139,37.183-47.984,40.054c-20.845,2.87-32.688-13.969-31.377-38.731
				c1.29-24.354,20.707-46.548,41.629-48.786C337.851,110.343,348.624,137.259,339.468,161.669z"/>
			<g id="Calque_28_-_copie_3_1_">
			</g>
			<g id="Calque_28_-_copie_3">
				
					<circle fill="none" stroke="#000000" stroke-width="2.4037" stroke-linecap="round" stroke-linejoin="round" stroke-miterlimit="10" cx="293.296" cy="166.084" r="12.458"/>
			</g>
		</g>
	</g>
</g>
</svg>
